<?xml version="1.0" encoding="UTF-8"?>
<svg id="_166" data-name="166" xmlns="http://www.w3.org/2000/svg" viewBox="0 0 2368.4 2422.03">
  <defs>
    <style>
      .cls-1 {
        fill: #e0edff;
        fill-rule: evenodd;
      }

      .cls-2 {
        fill: #96d7ff;
      }

      .cls-3 {
        fill: #6d6daa;
      }

      .cls-4 {
        fill: #c9c1f5;
      }
    </style>
  </defs>
  <g>
    <path class="cls-1" d="m2201.7,1382.9c16.47,153.95-54.08,286.38-192.91,351.81-353.2,166.72-199.22,232.43-392.7,437.55-300.42,318.32-468.46-191.04-816.84-36.4-213.46,94.81-631.3-44.88-516.22-363.67,131.34-363.42-66.4-413.15-59.9-717.41,7.39-353.48,251.4-375.62,402.5-458.54,160.33-87.96,169.3-386.77,431.05-416.74,207.55-23.66,234.34,225.84,680.2,138.3,248-48.59,491.23,208.29,422.82,448.18-106.23,372.79,15.9,373.55,42,616.92h0Z"/>
    <path class="cls-4" d="m1729.09,158.1c-22.83.11-43.41,9.5-58.5,24.35-15.44,15.01-24.91,35.83-24.99,58.8-.04,13.67-11.23,24.68-25.04,24.63-13.8-.04-25.09-11.13-25.04-24.81.07-22.96-9.24-43.84-24.59-58.96-15.17-15.31-36.2-24.66-59.4-24.74-13.8-.05-24.93-11.13-24.89-24.8.06-13.67,11.26-24.84,25.06-24.8,23.19.08,44.28-9.15,59.56-24.34,15.46-15.03,24.91-35.85,24.99-58.81.04-13.67,11.41-24.67,25.21-24.63,13.81.05,24.92,11.12,24.87,24.8-.07,22.96,9.24,43.85,24.59,58.98,14.98,14.94,35.49,24.47,58.33,24.73.35,0,.72.01,1.08,0,13.8.05,24.92,11.29,24.87,24.96-.05,13.68-11.24,24.68-25.04,24.64-.36,0-.71,0-1.07-.01h0Z"/>
    <path class="cls-4" d="m2018.43,2026.04c-15.75.13-30.29,6.56-40.77,16.87-10.65,10.66-17.43,25.18-17.48,41.13-.03,9.46-7.84,17.15-17.41,17.11-9.56-.02-17.32-7.77-17.28-17.23.05-15.95-6.63-30.53-17.22-41.24-10.59-10.57-25.43-17.1-41.55-17.15-9.55-.03-17.32-7.77-17.28-17.4.03-9.48,7.85-17.16,17.4-17.12,16.12.05,31.01-6.56,41.67-17.04,10.66-10.48,17.43-25,17.5-41.13.02-9.46,7.83-17.15,17.39-17.11,9.57.02,17.33,7.78,17.3,17.23-.05,16.12,6.62,30.7,17.2,41.24,10.41,10.38,24.91,17.09,40.66,17.33h.89c9.56.03,17.33,7.78,17.29,17.24-.03,9.63-7.85,17.33-17.41,17.28h-.88Z"/>
    <path class="cls-2" d="m591.82,442.59c-15.94.13-30.3,6.56-40.95,16.86-10.66,10.66-17.26,25.18-17.3,41.13-.04,9.47-7.86,17.15-17.59,17.12-9.57-.03-17.32-7.76-17.29-17.23.04-15.96-6.63-30.52-17.21-41.25-10.59-10.55-25.26-17.08-41.36-17.13-9.74-.04-17.5-7.78-17.47-17.41.03-9.46,7.85-17.15,17.59-17.12,16.11.06,30.83-6.55,41.48-17.03,10.65-10.49,17.43-25.01,17.49-40.96.03-9.63,7.85-17.33,17.41-17.29,9.74.03,17.5,7.78,17.47,17.42-.05,15.94,6.44,30.51,17.03,41.06,10.59,10.38,24.9,17.1,40.84,17.31h.71c9.56.04,17.5,7.78,17.47,17.25-.04,9.64-8.03,17.32-17.58,17.29-.18,0-.53,0-.71,0h0Z"/>
    <path class="cls-4" d="m202.97,1575.8c-19.11.29-36.31,7.95-48.92,20.35-12.97,12.74-20.99,30.07-21.06,49.36-.03,11.4-9.27,20.65-20.96,20.61-11.51-.04-20.86-9.36-20.82-20.75.06-19.28-7.84-36.66-20.54-49.49-12.7-12.67-30.38-20.61-49.68-20.68-11.69-.04-21.03-9.36-21-20.74.04-11.41,9.45-20.66,21.13-20.62,19.3.06,37.03-7.76,49.82-20.34,12.79-12.75,20.81-30.08,20.87-49.37.04-11.37,9.45-20.64,20.96-20.61,11.68.04,20.86,9.38,20.82,20.76-.06,19.28,7.85,36.66,20.73,49.5,12.53,12.47,29.67,20.26,48.78,20.68.36,0,.54,0,.89,0,11.5.04,20.85,9.35,20.82,20.74-.04,11.39-9.45,20.65-20.96,20.61-.35,0-.52,0-.89,0h0Z"/>
    <path class="cls-2" d="m1144.34,2325.79c-20.36.29-38.79,8.46-52.29,21.73-13.68,13.46-22.05,32-22.12,52.51-.05,12.27-10.17,22.05-22.39,22-12.39-.04-22.27-9.88-22.23-22.15.07-20.51-8.36-39.11-21.95-52.66-13.59-13.53-32.5-22.02-53.04-22.09-12.38-.04-22.27-9.89-22.22-22.15.04-12.09,9.99-22.05,22.38-22,20.53.08,39.5-8.29,53.17-21.75,13.68-13.44,22.24-31.99,22.32-52.5.03-12.1,9.98-22.05,22.37-22,12.21.04,22.27,10.07,22.23,22.16-.07,20.51,8.19,39.11,21.78,52.65,13.4,13.37,31.79,21.85,52.15,22.1.35,0,.7.01,1.06,0,12.21.04,22.27,9.88,22.23,22.16-.05,12.27-10.17,22.05-22.39,22.01-.35,0-.7,0-1.06,0h0Z"/>
    <path class="cls-2" d="m2352.41,939.09c-13.63.13-26.21,5.7-35.45,14.78-9.24,9.09-14.94,21.68-14.99,35.52-.02,8.42-6.96,15.07-15.27,15.04-8.33-.03-15.03-6.71-15-15.14.04-13.84-5.75-26.48-14.93-35.63-9.35-9.31-22.07-14.96-36.06-15.01-8.31-.03-15.21-6.71-15.17-15.13.02-8.24,6.96-14.87,15.27-14.84,13.98.05,26.75-5.69,36.16-14.78,9.24-9.09,15.11-21.86,15.17-35.71.02-8.23,6.77-14.87,15.09-14.84,8.32.04,15.21,6.71,15.18,14.95-.04,13.85,5.58,26.66,14.75,35.8,9.19,8.97,21.73,14.79,35.35,15.03.35,0,.53-.01.72,0,8.49.03,15.2,6.7,15.17,14.95-.03,8.41-6.78,15.05-15.28,15.02h-.71Z"/>
  </g>
  <g>
    <path class="cls-3" d="m1184.35,767.78c-244.12,0-442.73,198.61-442.73,442.73s198.61,442.73,442.73,442.73,442.73-198.61,442.73-442.73-198.61-442.73-442.73-442.73Zm290,262.58c-.82,20.37-9.51,39.21-24.5,53.04l-396.93,366.4c-14.14,13.05-32.53,20.24-51.78,20.24-5.65,0-11.32-.63-16.84-1.88-24.5-5.54-44.71-22.77-54.03-46.1l-61.07-152.66c-7.57-18.93-7.32-39.68.71-58.42,8.03-18.74,22.88-33.23,41.81-40.81,9.08-3.63,18.62-5.48,28.33-5.48,31.4,0,59.23,18.84,70.89,48l19.89,49.72,315.46-291.19c14.14-13.05,32.52-20.24,51.76-20.24,21.25,0,41.69,8.95,56.1,24.56,13.83,14.98,21,34.45,20.18,54.83Z"/>
    <path class="cls-3" d="m1398.07,981.51c-11.54,0-22.57,4.32-31.05,12.14l-331.75,306.23c-3.69,3.41-8.83,4.79-13.72,3.67-4.9-1.11-8.94-4.55-10.81-9.22l-28.12-70.31c-7-17.5-23.7-28.81-42.54-28.81-5.81,0-11.53,1.11-16.99,3.3-11.36,4.54-20.27,13.23-25.09,24.48-4.82,11.24-4.97,23.69-.43,35.05l61.06,152.67c5.6,14,17.72,24.34,32.42,27.66,3.32.75,6.72,1.13,10.1,1.13,11.55,0,22.58-4.31,31.07-12.14l396.93-366.4c18.56-17.13,19.72-46.16,2.59-64.72-8.77-9.5-20.73-14.74-33.67-14.74Z"/>
    <path class="cls-3" d="m1738.03,781.19l-342.29-257.55h-422.48l-342.48,277.3-132.7,429.97,132.52,424.7,342.11,241.79h422.97l342.31-261.53,132.63-429.72-132.59-424.95Zm-553.68,902.59c-260.96,0-473.26-212.3-473.26-473.26s212.31-473.26,473.26-473.26,473.26,212.31,473.26,473.26-212.3,473.26-473.26,473.26Z"/>
  </g>
</svg>